<mxfile host="app.diagrams.net" modified="2020-09-07T08:00:20.491Z" agent="5.0 (Windows NT 10.0; Win64; x64) AppleWebKit/537.36 (KHTML, like Gecko) Chrome/84.0.4147.89 Safari/537.36" etag="ZfCFwz7EgxO-PPjdTd2l" version="13.6.2" type="github">
  <diagram id="vr8B_XioXGWGXK2lUiw7" name="Page-1">
    <mxGraphModel dx="2062" dy="1163" grid="1" gridSize="10" guides="1" tooltips="1" connect="1" arrows="1" fold="1" page="1" pageScale="1" pageWidth="827" pageHeight="1169" math="0" shadow="0">
      <root>
        <mxCell id="0" />
        <mxCell id="1" parent="0" />
        <mxCell id="ExHjTuihiv2dg_8w6hbF-22" value="global" style="rounded=0;whiteSpace=wrap;html=1;fontSize=40;fillColor=#d5e8d4;strokeColor=#82b366;verticalAlign=bottom;" parent="1" vertex="1">
          <mxGeometry x="525" y="1037" width="1425" height="270" as="geometry" />
        </mxCell>
        <mxCell id="ExHjTuihiv2dg_8w6hbF-27" value="" style="rounded=0;whiteSpace=wrap;html=1;fontSize=15;fillColor=#fff2cc;strokeColor=#d6b656;" parent="1" vertex="1">
          <mxGeometry x="1420" y="917" width="371" height="340" as="geometry" />
        </mxCell>
        <mxCell id="ExHjTuihiv2dg_8w6hbF-26" value="" style="rounded=0;whiteSpace=wrap;html=1;fontSize=15;fillColor=#f8cecc;strokeColor=#b85450;" parent="1" vertex="1">
          <mxGeometry x="1045" y="917" width="371" height="340" as="geometry" />
        </mxCell>
        <mxCell id="ExHjTuihiv2dg_8w6hbF-24" value="" style="rounded=0;whiteSpace=wrap;html=1;fontSize=15;fillColor=#dae8fc;strokeColor=#6c8ebf;" parent="1" vertex="1">
          <mxGeometry x="573" y="915" width="466" height="340" as="geometry" />
        </mxCell>
        <mxCell id="ExHjTuihiv2dg_8w6hbF-1" value="memcg" style="rounded=0;whiteSpace=wrap;html=1;fillColor=#dae8fc;strokeColor=#6c8ebf;fontSize=20;" parent="1" vertex="1">
          <mxGeometry x="749" y="942" width="120" height="60" as="geometry" />
        </mxCell>
        <mxCell id="ExHjTuihiv2dg_8w6hbF-2" value="memcg" style="rounded=0;whiteSpace=wrap;html=1;fillColor=#f8cecc;strokeColor=#b85450;fontSize=20;" parent="1" vertex="1">
          <mxGeometry x="1161" y="942" width="120" height="60" as="geometry" />
        </mxCell>
        <mxCell id="ExHjTuihiv2dg_8w6hbF-3" value="memcg" style="rounded=0;whiteSpace=wrap;html=1;fillColor=#fff2cc;strokeColor=#d6b656;fontSize=20;" parent="1" vertex="1">
          <mxGeometry x="1470" y="942" width="120" height="60" as="geometry" />
        </mxCell>
        <mxCell id="ExHjTuihiv2dg_8w6hbF-4" value="inode" style="ellipse;whiteSpace=wrap;html=1;fillColor=#dae8fc;strokeColor=#6c8ebf;fontSize=20;" parent="1" vertex="1">
          <mxGeometry x="740" y="1108" width="120" height="80" as="geometry" />
        </mxCell>
        <mxCell id="ExHjTuihiv2dg_8w6hbF-5" value="inode" style="ellipse;whiteSpace=wrap;html=1;fillColor=#dae8fc;strokeColor=#6c8ebf;fontSize=20;" parent="1" vertex="1">
          <mxGeometry x="872" y="1120" width="120" height="80" as="geometry" />
        </mxCell>
        <mxCell id="ExHjTuihiv2dg_8w6hbF-6" value="inode" style="ellipse;whiteSpace=wrap;html=1;fillColor=#dae8fc;strokeColor=#6c8ebf;fontSize=20;" parent="1" vertex="1">
          <mxGeometry x="640" y="1167" width="120" height="80" as="geometry" />
        </mxCell>
        <mxCell id="ExHjTuihiv2dg_8w6hbF-7" value="inode" style="ellipse;whiteSpace=wrap;html=1;fillColor=#f8cecc;strokeColor=#b85450;fontSize=20;" parent="1" vertex="1">
          <mxGeometry x="1146" y="1096" width="120" height="80" as="geometry" />
        </mxCell>
        <mxCell id="ExHjTuihiv2dg_8w6hbF-8" value="inode" style="ellipse;whiteSpace=wrap;html=1;fillColor=#f8cecc;strokeColor=#b85450;fontSize=20;" parent="1" vertex="1">
          <mxGeometry x="1278" y="1108" width="120" height="80" as="geometry" />
        </mxCell>
        <mxCell id="ExHjTuihiv2dg_8w6hbF-9" value="inode" style="ellipse;whiteSpace=wrap;html=1;fillColor=#fff2cc;strokeColor=#d6b656;fontSize=20;" parent="1" vertex="1">
          <mxGeometry x="1440" y="1131" width="120" height="80" as="geometry" />
        </mxCell>
        <mxCell id="ExHjTuihiv2dg_8w6hbF-10" value="inode" style="ellipse;whiteSpace=wrap;html=1;fillColor=#fff2cc;strokeColor=#d6b656;fontSize=20;" parent="1" vertex="1">
          <mxGeometry x="1572" y="1143" width="120" height="80" as="geometry" />
        </mxCell>
        <mxCell id="ExHjTuihiv2dg_8w6hbF-13" value="bdi" style="rounded=0;whiteSpace=wrap;html=1;fontSize=20;" parent="1" vertex="1">
          <mxGeometry x="908" y="1434" width="120" height="60" as="geometry" />
        </mxCell>
        <mxCell id="ExHjTuihiv2dg_8w6hbF-15" value="" style="endArrow=classic;html=1;exitX=0.25;exitY=0;exitDx=0;exitDy=0;entryX=0.5;entryY=1;entryDx=0;entryDy=0;fontSize=20;" parent="1" source="ExHjTuihiv2dg_8w6hbF-13" target="ExHjTuihiv2dg_8w6hbF-4" edge="1">
          <mxGeometry width="50" height="50" relative="1" as="geometry">
            <mxPoint x="784" y="997" as="sourcePoint" />
            <mxPoint x="834" y="947" as="targetPoint" />
          </mxGeometry>
        </mxCell>
        <mxCell id="ExHjTuihiv2dg_8w6hbF-17" value="" style="endArrow=classic;html=1;exitX=0.5;exitY=0;exitDx=0;exitDy=0;entryX=0.5;entryY=1;entryDx=0;entryDy=0;fontSize=20;" parent="1" source="ExHjTuihiv2dg_8w6hbF-13" target="ExHjTuihiv2dg_8w6hbF-7" edge="1">
          <mxGeometry width="50" height="50" relative="1" as="geometry">
            <mxPoint x="998" y="967" as="sourcePoint" />
            <mxPoint x="1048" y="917" as="targetPoint" />
          </mxGeometry>
        </mxCell>
        <mxCell id="ExHjTuihiv2dg_8w6hbF-18" value="bdi" style="rounded=0;whiteSpace=wrap;html=1;fontSize=20;" parent="1" vertex="1">
          <mxGeometry x="1350" y="1434" width="120" height="60" as="geometry" />
        </mxCell>
        <mxCell id="ExHjTuihiv2dg_8w6hbF-19" value="" style="endArrow=classic;html=1;entryX=0.5;entryY=1;entryDx=0;entryDy=0;fontSize=20;" parent="1" source="ExHjTuihiv2dg_8w6hbF-18" target="ExHjTuihiv2dg_8w6hbF-8" edge="1">
          <mxGeometry width="50" height="50" relative="1" as="geometry">
            <mxPoint x="784" y="997" as="sourcePoint" />
            <mxPoint x="834" y="947" as="targetPoint" />
          </mxGeometry>
        </mxCell>
        <mxCell id="ExHjTuihiv2dg_8w6hbF-21" value="" style="endArrow=classic;html=1;entryX=0.5;entryY=1;entryDx=0;entryDy=0;exitX=0.75;exitY=0;exitDx=0;exitDy=0;fontSize=20;" parent="1" source="ExHjTuihiv2dg_8w6hbF-18" target="ExHjTuihiv2dg_8w6hbF-9" edge="1">
          <mxGeometry width="50" height="50" relative="1" as="geometry">
            <mxPoint x="1494" y="1386" as="sourcePoint" />
            <mxPoint x="1544" y="1336" as="targetPoint" />
          </mxGeometry>
        </mxCell>
        <mxCell id="ExHjTuihiv2dg_8w6hbF-29" value="" style="endArrow=none;html=1;fontSize=15;" parent="1" edge="1">
          <mxGeometry width="50" height="50" relative="1" as="geometry">
            <mxPoint x="880" y="1708" as="sourcePoint" />
            <mxPoint x="1280" y="1708" as="targetPoint" />
          </mxGeometry>
        </mxCell>
        <mxCell id="ExHjTuihiv2dg_8w6hbF-30" value="" style="endArrow=classic;html=1;fontSize=15;" parent="1" edge="1">
          <mxGeometry width="50" height="50" relative="1" as="geometry">
            <mxPoint x="879.5" y="1610" as="sourcePoint" />
            <mxPoint x="879.5" y="1707" as="targetPoint" />
          </mxGeometry>
        </mxCell>
        <mxCell id="ExHjTuihiv2dg_8w6hbF-32" value="background thresh" style="text;html=1;strokeColor=none;fillColor=none;align=center;verticalAlign=middle;whiteSpace=wrap;rounded=0;fontSize=15;" parent="1" vertex="1">
          <mxGeometry x="790" y="1587" width="180" height="20" as="geometry" />
        </mxCell>
        <mxCell id="ExHjTuihiv2dg_8w6hbF-33" value="" style="endArrow=classic;html=1;fontSize=15;" parent="1" edge="1">
          <mxGeometry width="50" height="50" relative="1" as="geometry">
            <mxPoint x="1278" y="1607" as="sourcePoint" />
            <mxPoint x="1278" y="1704" as="targetPoint" />
          </mxGeometry>
        </mxCell>
        <mxCell id="ExHjTuihiv2dg_8w6hbF-34" value="dirty thresh" style="text;html=1;strokeColor=none;fillColor=none;align=center;verticalAlign=middle;whiteSpace=wrap;rounded=0;fontSize=15;" parent="1" vertex="1">
          <mxGeometry x="1200" y="1580" width="180" height="20" as="geometry" />
        </mxCell>
        <mxCell id="ExHjTuihiv2dg_8w6hbF-38" value="" style="endArrow=classic;html=1;fontSize=15;" parent="1" edge="1">
          <mxGeometry width="50" height="50" relative="1" as="geometry">
            <mxPoint x="1080" y="1607" as="sourcePoint" />
            <mxPoint x="1080" y="1704" as="targetPoint" />
          </mxGeometry>
        </mxCell>
        <mxCell id="ExHjTuihiv2dg_8w6hbF-39" value="" style="endArrow=classic;html=1;fontSize=15;" parent="1" edge="1">
          <mxGeometry width="50" height="50" relative="1" as="geometry">
            <mxPoint x="1180" y="1607" as="sourcePoint" />
            <mxPoint x="1180" y="1704" as="targetPoint" />
          </mxGeometry>
        </mxCell>
        <mxCell id="ExHjTuihiv2dg_8w6hbF-40" value="free run" style="text;html=1;strokeColor=none;fillColor=none;align=center;verticalAlign=middle;whiteSpace=wrap;rounded=0;fontSize=15;" parent="1" vertex="1">
          <mxGeometry x="992" y="1580" width="180" height="20" as="geometry" />
        </mxCell>
        <mxCell id="ExHjTuihiv2dg_8w6hbF-41" value="setpoint" style="text;html=1;strokeColor=none;fillColor=none;align=center;verticalAlign=middle;whiteSpace=wrap;rounded=0;fontSize=15;" parent="1" vertex="1">
          <mxGeometry x="1098" y="1580" width="180" height="20" as="geometry" />
        </mxCell>
        <mxCell id="ExHjTuihiv2dg_8w6hbF-42" value="" style="endArrow=classic;html=1;fontSize=15;" parent="1" edge="1">
          <mxGeometry width="50" height="50" relative="1" as="geometry">
            <mxPoint x="1200" y="1310" as="sourcePoint" />
            <mxPoint x="1170" y="1410" as="targetPoint" />
          </mxGeometry>
        </mxCell>
        <mxCell id="ExHjTuihiv2dg_8w6hbF-43" value="bdi_dirty_limit" style="text;html=1;align=center;verticalAlign=middle;resizable=0;points=[];autosize=1;fontSize=15;" parent="1" vertex="1">
          <mxGeometry x="1175" y="1350" width="110" height="20" as="geometry" />
        </mxCell>
        <mxCell id="ud-lMpE5IaMeYkotX65d-1" value="memcg" style="rounded=0;whiteSpace=wrap;html=1;fillColor=#dae8fc;strokeColor=#6c8ebf;fontSize=20;" vertex="1" parent="1">
          <mxGeometry x="660" y="680" width="120" height="60" as="geometry" />
        </mxCell>
        <mxCell id="ud-lMpE5IaMeYkotX65d-4" value="memcg" style="rounded=0;whiteSpace=wrap;html=1;fillColor=#dae8fc;strokeColor=#6c8ebf;fontSize=20;" vertex="1" parent="1">
          <mxGeometry x="869" y="680" width="120" height="60" as="geometry" />
        </mxCell>
        <mxCell id="ud-lMpE5IaMeYkotX65d-5" value="process" style="rounded=0;whiteSpace=wrap;html=1;fontSize=15;" vertex="1" parent="1">
          <mxGeometry x="660" y="585" width="120" height="60" as="geometry" />
        </mxCell>
        <mxCell id="ud-lMpE5IaMeYkotX65d-6" value="process" style="rounded=0;whiteSpace=wrap;html=1;fontSize=15;" vertex="1" parent="1">
          <mxGeometry x="869" y="585" width="120" height="60" as="geometry" />
        </mxCell>
        <mxCell id="ud-lMpE5IaMeYkotX65d-8" value="" style="endArrow=classic;html=1;fontSize=15;exitX=0.5;exitY=1;exitDx=0;exitDy=0;entryX=0.5;entryY=0;entryDx=0;entryDy=0;" edge="1" parent="1" source="ud-lMpE5IaMeYkotX65d-5" target="ud-lMpE5IaMeYkotX65d-1">
          <mxGeometry width="50" height="50" relative="1" as="geometry">
            <mxPoint x="810" y="820" as="sourcePoint" />
            <mxPoint x="860" y="770" as="targetPoint" />
          </mxGeometry>
        </mxCell>
        <mxCell id="ud-lMpE5IaMeYkotX65d-9" value="" style="endArrow=classic;html=1;fontSize=15;exitX=0.5;exitY=1;exitDx=0;exitDy=0;entryX=0.5;entryY=0;entryDx=0;entryDy=0;" edge="1" parent="1" source="ud-lMpE5IaMeYkotX65d-6" target="ud-lMpE5IaMeYkotX65d-4">
          <mxGeometry width="50" height="50" relative="1" as="geometry">
            <mxPoint x="1140" y="1060" as="sourcePoint" />
            <mxPoint x="1190" y="1010" as="targetPoint" />
          </mxGeometry>
        </mxCell>
      </root>
    </mxGraphModel>
  </diagram>
</mxfile>
